<svg xmlns="http://www.w3.org/2000/svg" viewBox="0 0 36 36">
<path fill="#DA121A" d="M36 27a4 4 0 0 1-4 4H4a4 4 0 0 1-4-4V9a4 4 0 0 1 4-4h28a4 4 0 0 1 4 4v18z"/>
<circle fill="#FFF" cx="18" cy="18" r="8"/>
<path fill="#DA121A" d="M21 18c0 1.66-1.34 3-3 3s-3-1.34-3-3 1.34-3 3-3c.3 0 .59.04.86.12a2.5 2.5 0 1 0 0 5.76A3.001 3.001 0 0 1 21 18z"/>
<polygon fill="#DA121A" points="20.5,16.5 21,18 22.5,18 21.2,19 21.7,20.5 20.5,19.5 19.3,20.5 19.8,19 18.5,18 20,18" transform="translate(-1.5 0)"/>
</svg>